# xmcd CD database file
#
# Track frame offsets:
#	150
#	32281
#	46688
#	63283
#	70782
#	74358
#	82198
#	94781
#	101976
#	113136
#
# Disc length: 1815 seconds
#
# Revision: 0
# Processed by: cddbd v1.5PL3 Copyright (c) Steve Scherf et al.
# Submitted via: CDex 1.51
#
DISCID=8007150a
DTITLE=S.E.N.S. - Palace Sketch
DYEAR=1996
DGENRE=New Age
TTITLE0=Time Gate
TTITLE1=Catacombs
TTITLE2=Mayfly
TTITLE3=Pipes Of War
TTITLE4=Eve
TTITLE5=Loss
TTITLE6=Mist
TTITLE7=Peace Of Mind - Strings
TTITLE8=Peace Of Mind - Piano
TTITLE9=Palace Memories
EXTD=YEAR: 1996
EXTT0=
EXTT1=
EXTT2=
EXTT3=
EXTT4=
EXTT5=
EXTT6=
EXTT7=
EXTT8=
EXTT9=
PLAYORDER=
